<svg xmlns="http://www.w3.org/2000/svg" viewBox="0 0 64 64">
  <rect width="64" height="64" rx="18" fill="#123d2e"/>
  <path d="M33 10c11 8 17 18 17 29 0 10-7 18-17 18S16 49 16 39c0-10 6-20 17-29Z" fill="#d7e7cf" opacity=".25"/>
  <path d="M34 14c10 8 15 17 15 25 0 9-6 18-16 18S17 49 17 40c0-8 5-17 17-26Z" fill="none" stroke="#e9f4e2" stroke-linecap="round" stroke-linejoin="round" stroke-width="3"/>
  <path d="M33 18v27" fill="none" stroke="#e9f4e2" stroke-linecap="round" stroke-width="3"/>
  <path d="M33 30c7-4 10-9 12-16" fill="none" stroke="#e9f4e2" stroke-linecap="round" stroke-width="3"/>
</svg>
