<svg xmlns="http://www.w3.org/2000/svg" viewBox="0 0 640 400">
  <rect width="640" height="400" rx="28" fill="#eef5ea"/>
  <rect x="48" y="44" width="198" height="52" rx="20" fill="#fff"/>
  <text x="76" y="78" fill="#123d2e" font-family="Manrope, sans-serif" font-size="22" font-weight="800">Clean-Up Campaigns</text>
  <path d="M0 300c64-30 128-30 192 0s128 30 192 0 128-30 256 0v100H0Z" fill="#c8dfba"/>
  <path d="M0 332c64-26 128-26 192 0s128 26 192 0 128-26 256 0" fill="none" stroke="#63a26d" stroke-width="8"/>
  <circle cx="236" cy="188" r="24" fill="#1d6a4a"/>
  <path d="M196 256c8-26 24-40 48-40s40 14 48 40" fill="#123d2e"/>
  <path d="M284 184 356 276" fill="none" stroke="#be7443" stroke-linecap="round" stroke-width="10"/>
  <path d="M370 198h70l20 92H350Z" fill="#fff"/>
  <path d="M392 160c32-12 59-34 78-64-32 4-64 22-86 52" fill="#8ca96f"/>
</svg>
